<?xml version="1.0" encoding="UTF-8" standalone="no" ?>
<!DOCTYPE svg PUBLIC "-//W3C//DTD SVG 1.1//EN" "http://www.w3.org/Graphics/SVG/1.1/DTD/svg11.dtd">
<svg xmlns="http://www.w3.org/2000/svg" xmlns:xlink="http://www.w3.org/1999/xlink" version="1.1" width="1080" height="1080" viewBox="0 0 1080 1080" xml:space="preserve">
<desc>Created with Fabric.js 5.2.4</desc>
<defs>
</defs>
<g transform="matrix(1 0 0 1 540 540)" id="83f015eb-5fae-4b17-bdb5-771b88d6638d"  >
</g>
<g transform="matrix(1 0 0 1 540 540)" id="ef10e3e5-ac87-4540-8152-7fa6370bb1f4"  >
<rect style="stroke: none; stroke-width: 1; stroke-dasharray: none; stroke-linecap: butt; stroke-dashoffset: 0; stroke-linejoin: miter; stroke-miterlimit: 4; fill: rgb(255,255,255); fill-rule: nonzero; opacity: 1; visibility: hidden;" vector-effect="non-scaling-stroke"  x="-540" y="-540" rx="0" ry="0" width="1080" height="1080" />
</g>
<g transform="matrix(-1 0 0 1 540 508.71)"  >
<path style="stroke: rgb(0,0,0); stroke-width: 0; stroke-dasharray: none; stroke-linecap: butt; stroke-dashoffset: 0; stroke-linejoin: miter; stroke-miterlimit: 4; fill: rgb(255,255,255); fill-rule: nonzero; opacity: 1;" vector-effect="non-scaling-stroke"  transform=" translate(-247.54, -247.54)" d="M 490.518 231.519 C 405.596 191.183 312.93399999999997 169.86200000000002 222.553 169.86200000000002 C 190.17 169.86200000000002 157.951 172.57500000000002 126.485 177.913 L 113.127 150.847 C 111.779 148.116 108.999 146.387 105.95299999999999 146.387 C 102.90799999999999 146.387 100.127 148.116 98.77899999999998 150.846 L 70.37099999999998 208.407 L 6.85 217.635 C 3.836 218.07299999999998 1.3329999999999993 220.184 0.39199999999999946 223.07999999999998 C -0.5490000000000004 225.97599999999997 0.23599999999999946 229.15499999999997 2.4159999999999995 231.27999999999997 L 48.379999999999995 276.08299999999997 L 37.528999999999996 339.347 C 37.013999999999996 342.349 38.248 345.381 40.711999999999996 347.16999999999996 C 43.175999999999995 348.96099999999996 46.440999999999995 349.19699999999995 49.137 347.77899999999994 L 105.952 317.90999999999997 L 162.765 347.779 C 163.93499999999997 348.393 165.213 348.698 166.487 348.698 C 168.146 348.698 169.797 348.181 171.19 347.171 C 173.654 345.381 174.887 342.349 174.373 339.347 L 165.96699999999998 290.332 C 243.29699999999997 257.69599999999997 324.706 240.62 404.467 240.62 C 431.912 240.62 459.30899999999997 242.65 485.895 246.656 C 489.815 247.247 493.579 244.875 494.73699999999997 241.082 C 495.8949999999999 237.289 494.1 233.221 490.518 231.519 z M 109.674 301.792 C 107.343 300.566 104.55900000000001 300.566 102.22900000000001 301.792 L 56.039000000000016 326.075 L 64.86000000000001 274.642 C 65.305 272.046 64.44500000000001 269.4 62.55900000000001 267.562 L 25.19100000000001 231.137 L 76.83200000000001 223.632 C 79.43700000000001 223.25300000000001 81.69000000000001 221.616 82.855 219.256 L 105.95100000000001 172.461 L 129.04500000000002 219.255 C 130.21 221.61599999999999 132.46200000000002 223.253 135.068 223.632 L 186.71 231.137 L 149.34300000000002 267.562 C 147.45700000000002 269.40000000000003 146.597 272.047 147.04200000000003 274.644 L 155.86200000000002 326.076 L 109.674 301.792 z M 404.467 224.621 C 325.131 224.621 244.25599999999997 241.065 167.184 272.517 L 209.488 231.28 C 211.669 229.155 212.453 225.975 211.512 223.08 C 210.571 220.18400000000003 208.068 218.073 205.054 217.63500000000002 L 141.53300000000002 208.40500000000003 L 133.88600000000002 192.91000000000003 C 162.967 188.23800000000003 192.68400000000003 185.86200000000002 222.55300000000003 185.86200000000002 C 293.73900000000003 185.86200000000002 366.40500000000003 199.45700000000002 435.389 225.45700000000002 C 425.113 224.899 414.793 224.621 404.467 224.621 z" stroke-linecap="round" />
</g>
</svg>